HIERARCHY
ROOT Hips
{
	OFFSET 0.000000 0.000000 0.000000
	CHANNELS 6 Xposition Yposition Zposition Zrotation Yrotation Xrotation 
	JOINT LHipJoint
	{
		OFFSET 0.000000 0.000000 0.000000
		CHANNELS 3 Zrotation Yrotation Xrotation
		JOINT LeftUpLeg
		{
			OFFSET 1.363060 -1.794630 0.839290
			CHANNELS 3 Zrotation Yrotation Xrotation
			JOINT LeftLeg
			{
				OFFSET 2.448110 -6.726130 0.000000
				CHANNELS 3 Zrotation Yrotation Xrotation
				JOINT LeftFoot
				{
					OFFSET 2.562200 -7.039590 0.000000
					CHANNELS 3 Zrotation Yrotation Xrotation
					JOINT LeftToeBase
					{
						OFFSET 0.157640 -0.433110 2.322550
						CHANNELS 3 Zrotation Yrotation Xrotation
						End Site
						{
							OFFSET 0.000000 0.000000 0.000000
						}
					}
				}
			}
		}
	}
	JOINT RHipJoint
	{
		OFFSET 0.000000 0.000000 0.000000
		CHANNELS 3 Zrotation Yrotation Xrotation
		JOINT RightUpLeg
		{
			OFFSET -1.305520 -1.794630 0.839290
			CHANNELS 3 Zrotation Yrotation Xrotation
			JOINT RightLeg
			{
				OFFSET -2.542530 -6.985550 0.000000
				CHANNELS 3 Zrotation Yrotation Xrotation
				JOINT RightFoot
				{
					OFFSET -2.568260 -7.056230 0.000000
					CHANNELS 3 Zrotation Yrotation Xrotation
					JOINT RightToeBase
					{
						OFFSET -0.164730 -0.452590 2.363150
						CHANNELS 3 Zrotation Yrotation Xrotation
						End Site
						{
							OFFSET 0.000000 0.000000 0.000000
						}
					}
				}
			}
		}
	}
}
MOTION
Frames: 28
Frame Time: 0.008333
3.559388 17.214274 0.920796 -26.615508 -88.852023 37.943351 -11.663691 1.497673 1.597611 -3.056949 13.750683 -16.412576 -2.383893 -1.221220 -2.507301 0.244109 2.425492 3.770429 0.699300 -0.000000 -36.549200 9.105408 -1.893101 2.046065 4.421895 -5.553592 -11.044754 2.408761 1.527273 -1.181065 -0.370474 -6.750165 -0.731578 -2.243699 -0.000000 -43.566500
3.563841 17.214563 0.919768 -21.212156 -88.612214 32.571364 -11.631443 1.544855 1.674890 -3.082213 13.469080 -16.535160 -2.384566 -1.205347 -2.493442 0.237587 2.326721 3.818819 0.683000 0.000000 -36.546001 9.130981 -1.847588 2.003256 4.426179 -5.710808 -11.061790 2.393568 1.544479 -1.123484 -0.375764 -6.948239 -0.796375 -2.297400 -0.000000 -43.522701
3.568256 17.214970 0.918674 -17.305112 -88.328675 28.695050 -11.587031 1.579384 1.745496 -3.108376 13.191853 -16.646360 -2.387458 -1.197705 -2.487287 0.227982 2.227765 3.879292 0.668600 0.000000 -36.540201 9.169898 -1.817381 1.968878 4.429544 -5.872420 -11.083953 2.377176 1.555007 -1.077695 -0.383876 -7.141045 -0.858038 -2.347700 -0.000000 -43.478501
3.572546 17.215510 0.917489 -14.355089 -88.021580 25.776766 -11.539374 1.604388 1.810390 -3.141589 12.934414 -16.760247 -2.393624 -1.195839 -2.478491 0.215035 2.117950 3.945920 0.653300 0.000000 -36.534301 9.213023 -1.799849 1.944244 4.430381 -6.031864 -11.115459 2.360529 1.561432 -1.040929 -0.393764 -7.328369 -0.917115 -2.395500 0.000000 -43.432000
3.576918 17.216181 0.916248 -12.020879 -87.705520 23.469011 -11.491821 1.622972 1.870563 -3.178473 12.684458 -16.856172 -2.400493 -1.198487 -2.482971 0.201291 2.016653 4.023224 0.640400 0.000000 -36.526100 9.257761 -1.791163 1.923525 4.424626 -6.194823 -11.147046 2.344031 1.563965 -1.008977 -0.403810 -7.500555 -0.972244 -2.438800 0.000000 -43.386500
3.581315 17.216949 0.914925 -10.121021 -87.388373 21.593558 -11.445915 1.636843 1.927075 -3.222871 12.453697 -16.950045 -2.409482 -1.204496 -2.489136 0.186078 1.913248 4.105130 0.627800 0.000000 -36.517100 9.301984 -1.790213 1.909864 4.413341 -6.354447 -11.184929 2.327969 1.564264 -0.981677 -0.413736 -7.660562 -1.023763 -2.478900 -0.000000 -43.341000
3.585959 17.217812 0.913562 -8.538812 -87.075933 20.027468 -11.402583 1.647092 1.979335 -3.269459 12.234683 -17.025520 -2.418650 -1.213041 -2.505916 0.170931 1.819804 4.193813 0.617300 0.000000 -36.505900 9.345217 -1.794912 1.898469 4.396015 -6.515389 -11.220375 2.312595 1.561781 -0.955435 -0.422463 -7.802184 -1.070680 -2.514400 -0.000000 -43.299200
3.590675 17.218720 0.912154 -7.179951 -86.772681 18.681696 -11.361517 1.654822 2.029009 -3.321558 12.030302 -17.093549 -2.428787 -1.223841 -2.527642 0.155807 1.733835 4.285482 0.608499 0.000000 -36.493200 9.387217 -1.804646 1.892288 4.372771 -6.671683 -11.259348 2.297823 1.557691 -0.931548 -0.430403 -7.928873 -1.113542 -2.546301 -0.000000 -43.261900
3.595752 17.219656 0.910734 -6.008084 -86.480617 17.514693 -11.323344 1.659985 2.074639 -3.375133 11.839941 -17.146497 -2.438948 -1.236111 -2.555675 0.141185 1.658059 4.379773 0.601800 -0.000001 -36.477299 9.427501 -1.818294 1.888255 4.344657 -6.825213 -11.295697 2.283800 1.551512 -0.907950 -0.437090 -8.038581 -1.151140 -2.574299 0.000000 -43.231200
3.601176 17.220603 0.909325 -4.980955 -86.201909 16.485965 -11.287960 1.662745 2.116148 -3.430432 11.664258 -17.186986 -2.449171 -1.249521 -2.588096 0.127218 1.592439 4.474530 0.596899 0.000000 -36.458100 9.465928 -1.835115 1.886367 4.312262 -6.973728 -11.330200 2.270476 1.543562 -0.884783 -0.442525 -8.132886 -1.183548 -2.598900 0.000001 -43.209101
3.607013 17.221528 0.907888 -4.054890 -85.938417 15.552790 -11.254920 1.663268 2.154011 -3.487600 11.498665 -17.213995 -2.458986 -1.264006 -2.627653 0.114590 1.542895 4.570433 0.595200 0.000000 -36.435800 9.502773 -1.854165 1.886429 4.274635 -7.114910 -11.363697 2.257539 1.533997 -0.862576 -0.447105 -8.213622 -1.210619 -2.620400 -0.000000 -43.196300
3.613250 17.222416 0.906408 -3.199083 -85.691116 14.686206 -11.223971 1.661386 2.188232 -3.546536 11.338032 -17.225580 -2.467893 -1.279567 -2.678244 0.103904 1.514838 4.668491 0.597799 -0.000000 -36.410299 9.538172 -1.874486 1.887310 4.231129 -7.248130 -11.396038 2.244880 1.522875 -0.841902 -0.450962 -8.280952 -1.232575 -2.638799 0.000000 -43.193500
3.619967 17.223298 0.904932 -2.414173 -85.460437 13.887069 -11.195728 1.656437 2.216262 -3.606165 11.191697 -17.225269 -2.476490 -1.295413 -2.733067 0.094302 1.498586 4.766191 0.602700 -0.000000 -36.381300 9.571477 -1.895656 1.888023 4.184006 -7.371808 -11.425887 2.232497 1.510139 -0.821724 -0.454113 -8.337576 -1.249358 -2.654800 -0.000000 -43.199200
3.627191 17.224159 0.903373 -1.671606 -85.247030 13.128630 -11.169820 1.648157 2.237940 -3.667512 11.055556 -17.212850 -2.484529 -1.311561 -2.794902 0.086211 1.498133 4.864901 0.610700 -0.000000 -36.349400 9.602938 -1.916721 1.887774 4.132167 -7.484883 -11.454423 2.220158 1.495861 -0.802593 -0.456883 -8.384455 -1.261502 -2.668500 -0.000000 -43.212000
3.634847 17.225048 0.901745 -0.957077 -85.050874 12.399173 -11.146275 1.636068 2.252395 -3.730634 10.929769 -17.189819 -2.492094 -1.327875 -2.863929 0.079550 1.512494 4.965280 0.621800 0.000000 -36.315401 9.632498 -1.937069 1.885702 4.075662 -7.586767 -11.482494 2.207783 1.480071 -0.784619 -0.459496 -8.422764 -1.269077 -2.680300 0.000000 -43.229300
3.642999 17.225999 0.900029 -0.272144 -84.871145 11.701409 -11.125455 1.619474 2.257440 -3.796229 10.822622 -17.162105 -2.499969 -1.343760 -2.932931 0.073388 1.531769 5.065532 0.633800 -0.000000 -36.279900 9.659704 -1.956422 1.881380 4.016403 -7.676087 -11.510942 2.195433 1.462847 -0.767587 -0.461906 -8.454492 -1.272432 -2.690600 0.000000 -43.246900
3.651486 17.227045 0.898115 0.437449 -84.707919 10.985079 -11.106428 1.598556 2.255802 -3.863991 10.710532 -17.118338 -2.506266 -1.360268 -3.019599 0.070019 1.580180 5.173085 0.652200 -0.000000 -36.244000 9.685577 -1.973500 1.872759 3.949611 -7.755840 -11.540598 2.182785 1.444036 -0.753215 -0.464436 -8.476747 -1.272044 -2.698301 0.000000 -43.264600
3.660353 17.228234 0.896065 1.131559 -84.559233 10.290389 -11.090382 1.572134 2.242906 -3.934885 10.620314 -17.076190 -2.513394 -1.375945 -3.100932 0.066548 1.627200 5.280032 0.670300 -0.000000 -36.207800 9.708770 -1.989043 1.860798 3.881073 -7.823057 -11.572409 2.170242 1.423894 -0.740415 -0.467005 -8.493589 -1.267663 -2.704700 0.000000 -43.275800
3.669607 17.229584 0.893817 1.830096 -84.423888 9.598849 -11.077091 1.539919 2.219322 -4.008753 10.544410 -17.034622 -2.520806 -1.390968 -3.180036 0.063572 1.679079 5.388445 0.689600 -0.000000 -36.171600 9.729474 -2.002572 1.844612 3.809794 -7.879164 -11.607175 2.157776 1.402424 -0.730589 -0.469961 -8.504152 -1.258636 -2.709500 0.000000 -43.278200
3.679113 17.231162 0.891389 2.538416 -84.299891 8.907651 -11.066673 1.501759 2.185299 -4.084928 10.479417 -16.994063 -2.528254 -1.405390 -3.256352 0.061304 1.737889 5.498411 0.710499 0.000000 -36.135299 9.747550 -2.014204 1.823962 3.736200 -7.924870 -11.645131 2.145520 1.379741 -0.725290 -0.473385 -8.507927 -1.244287 -2.712300 0.000000 -43.270200
3.688961 17.232966 0.888764 3.241885 -84.185560 8.230961 -11.059474 1.457053 2.139793 -4.163334 10.431797 -16.962817 -2.536351 -1.418721 -3.320223 0.058908 1.794406 5.606386 0.730800 -0.000000 -36.098199 9.762460 -2.024350 1.799459 3.662740 -7.959241 -11.687076 2.133682 1.356033 -0.725549 -0.477586 -8.506129 -1.223162 -2.713600 0.000000 -43.250000
3.699015 17.235015 0.885901 3.977251 -84.079498 7.534348 -11.055134 1.405943 2.085348 -4.243458 10.383169 -16.932722 -2.543635 -1.431795 -3.382622 0.058213 1.867774 5.715939 0.755100 -0.000000 -36.059699 9.774619 -2.032596 1.769982 3.585997 -7.986122 -11.732627 2.122279 1.331343 -0.734981 -0.482783 -8.494284 -1.194307 -2.711400 0.000000 -43.217600
3.709212 17.237310 0.882835 4.699318 -83.979004 6.863705 -11.054457 1.348013 2.019885 -4.324326 10.352402 -16.919640 -2.551723 -1.443627 -3.423319 0.057084 1.934963 5.819425 0.777900 -0.000001 -36.017800 9.782999 -2.040515 1.738011 3.512268 -8.001660 -11.782763 2.111604 1.306148 -0.754311 -0.489275 -8.477482 -1.155576 -2.707700 0.000000 -43.173300
3.719510 17.239834 0.879558 5.438462 -83.882833 6.189341 -11.057209 1.283274 1.945878 -4.405889 10.323184 -16.916713 -2.559353 -1.455054 -3.451708 0.057162 2.013157 5.919060 0.803100 0.000000 -35.971200 9.787822 -2.047938 1.702996 3.438305 -8.009064 -11.837329 2.101678 1.280487 -0.787097 -0.497353 -8.451043 -1.106021 -2.700500 0.000000 -43.118100
3.729726 17.242555 0.876035 6.194807 -83.788800 5.512866 -11.063667 1.211723 1.864311 -4.487894 10.295023 -16.927625 -2.566672 -1.466245 -3.464306 0.058340 2.101341 6.012894 0.830600 0.000000 -35.917800 9.788715 -2.055818 1.666378 3.365321 -8.008588 -11.897256 2.092607 1.254694 -0.835972 -0.507392 -8.415080 -1.044375 -2.689700 -0.000000 -43.052700
3.739939 17.245477 0.872304 6.942595 -83.694076 4.856252 -11.074273 1.133436 1.775672 -4.568188 10.271704 -16.954948 -2.573804 -1.476997 -3.454735 0.060040 2.193516 6.098083 0.858900 -0.000000 -35.856500 9.785175 -2.065539 1.629521 3.296197 -8.000560 -11.960977 2.084493 1.228679 -0.900271 -0.519360 -8.370871 -0.969968 -2.675700 0.000000 -42.981300
3.749858 17.248532 0.868302 7.709807 -83.597457 4.191968 -11.089056 1.049016 1.683583 -4.648191 10.244390 -16.996318 -2.580375 -1.488183 -3.428994 0.063036 2.298754 6.175698 0.890201 0.000000 -35.785300 9.777125 -2.077965 1.594450 3.228761 -7.987961 -12.030447 2.077371 1.202705 -0.982781 -0.533133 -8.314956 -0.882783 -2.657400 0.000001 -42.903000
3.759389 17.251740 0.864020 8.491870 -83.496951 3.521123 -11.108229 0.959828 1.591683 -4.727035 10.212558 -17.052136 -2.586338 -1.499945 -3.384797 0.067111 2.415480 6.244989 0.924300 -0.000000 -35.703200 9.764289 -2.094901 1.564352 3.164258 -7.972327 -12.105022 2.071206 1.176940 -1.082683 -0.548782 -8.248486 -0.783681 -2.634900 -0.000000 -42.820900
